<svg width="36" height="36" viewBox="0 0 36 36" fill="none" xmlns="http://www.w3.org/2000/svg">
<g clip-path="url(#clip0_263_6276)">
<path d="M30.8562 0H5.14192C4.43075 0 3.8562 0.574554 3.8562 1.28571V34.7143C3.8562 35.4254 4.43075 36 5.14192 36H30.8562C31.5674 36 32.1419 35.4254 32.1419 34.7143V1.28571C32.1419 0.574554 31.5674 0 30.8562 0ZM20.4098 2.89286H24.2669V11.3263L22.3986 9.96429L20.4098 11.3866V2.89286ZM29.2491 33.1071H6.74906V2.89286H17.9991V14.8219C17.9991 14.9545 18.0392 15.0871 18.1196 15.1955C18.1684 15.2645 18.2303 15.3231 18.3019 15.3679C18.3735 15.4128 18.4532 15.443 18.5366 15.4568C18.6199 15.4706 18.7051 15.4678 18.7874 15.4485C18.8696 15.4291 18.9471 15.3937 19.0156 15.3442L22.3825 12.9375L25.6531 15.3241C25.7616 15.4045 25.8942 15.4487 26.0308 15.4487C26.3843 15.4487 26.6736 15.1594 26.6736 14.8058V2.89286H29.245V33.1071H29.2491Z" fill="#141414"/>
</g>
<defs>
<clipPath id="clip0_263_6276">
<rect width="36" height="36" fill="white"/>
</clipPath>
</defs>
</svg>
