<svg width="36" height="36" viewBox="0 0 36 36" fill="none" xmlns="http://www.w3.org/2000/svg">
<path d="M32.7863 1.93359C32.6337 1.93359 32.477 1.96172 32.3203 2.026L9.16134 11.3314H2.57206C2.21848 11.3314 1.9292 11.6287 1.9292 11.9983V24.0117C1.9292 24.3814 2.21848 24.6787 2.57206 24.6787H6.65822C6.50956 25.1448 6.4292 25.639 6.4292 26.1412C6.4292 28.789 8.59081 30.9425 11.2506 30.9425C13.4765 30.9425 15.3529 29.4318 15.9073 27.3907L32.3243 33.9881C32.481 34.0483 32.6377 34.0805 32.7904 34.0805C33.4694 34.0805 34.0761 33.5099 34.0761 32.7465V3.26752C34.0721 2.50413 33.4694 1.93359 32.7863 1.93359ZM11.2506 28.0617C10.1859 28.0617 9.32206 27.2019 9.32206 26.1412C9.32206 25.6912 9.47875 25.2613 9.76402 24.9198L13.1752 26.2898C13.0948 27.2782 12.2631 28.0617 11.2506 28.0617V28.0617ZM31.1792 30.4082L10.2381 21.9948L9.71982 21.7858H4.82206V14.2242H9.71982L10.2381 14.0153L31.1792 5.6019V30.4082V30.4082Z" fill="black" fill-opacity="0.85"/>
</svg>
