<svg width="36" height="36" viewBox="0 0 36 36" fill="none" xmlns="http://www.w3.org/2000/svg">
<path d="M31.9207 28.1039C31.1628 26.3086 30.0629 24.6779 28.6823 23.3026C27.3059 21.9233 25.6755 20.8236 23.881 20.0642C23.8649 20.0561 23.8488 20.0521 23.8328 20.0441C26.3359 18.2361 27.9631 15.291 27.9631 11.9682C27.9631 6.46373 23.5033 2.00391 17.9988 2.00391C12.4944 2.00391 8.03456 6.46373 8.03456 11.9682C8.03456 15.291 9.66179 18.2361 12.1649 20.0481C12.1488 20.0561 12.1328 20.0602 12.1167 20.0682C10.3167 20.8276 8.70152 21.9164 7.31536 23.3066C5.93607 24.683 4.83636 26.3134 4.07697 28.1079C3.33094 29.8647 2.92859 31.7483 2.8917 33.6566C2.89063 33.6995 2.89815 33.7421 2.91382 33.7821C2.9295 33.822 2.953 33.8584 2.98296 33.8891C3.01291 33.9198 3.04871 33.9442 3.08824 33.9608C3.12777 33.9775 3.17024 33.9861 3.21313 33.9861H5.62384C5.80063 33.9861 5.94126 33.8454 5.94527 33.6727C6.02563 30.5709 7.27117 27.666 9.47295 25.4642C11.7511 23.1861 14.7765 21.9325 17.9988 21.9325C21.2212 21.9325 24.2466 23.1861 26.5247 25.4642C28.7265 27.666 29.9721 30.5709 30.0524 33.6727C30.0564 33.8494 30.1971 33.9861 30.3738 33.9861H32.7846C32.8275 33.9861 32.8699 33.9775 32.9094 33.9608C32.949 33.9442 32.9848 33.9198 33.0147 33.8891C33.0447 33.8584 33.0682 33.822 33.0839 33.7821C33.0995 33.7421 33.1071 33.6995 33.106 33.6566C33.0658 31.7361 32.668 29.8677 31.9207 28.1039V28.1039ZM17.9988 18.8789C16.1546 18.8789 14.4189 18.1597 13.1131 16.8539C11.8073 15.5481 11.0881 13.8124 11.0881 11.9682C11.0881 10.124 11.8073 8.38828 13.1131 7.08248C14.4189 5.77667 16.1546 5.05748 17.9988 5.05748C19.843 5.05748 21.5788 5.77667 22.8846 7.08248C24.1904 8.38828 24.9096 10.124 24.9096 11.9682C24.9096 13.8124 24.1904 15.5481 22.8846 16.8539C21.5788 18.1597 19.843 18.8789 17.9988 18.8789Z" fill="black" fill-opacity="0.85"/>
</svg>
